<svg width="208" height="43" viewBox="0 0 208 43" fill="none" xmlns="http://www.w3.org/2000/svg">
<path fill-rule="evenodd" clip-rule="evenodd" d="M26.6089 4.96472C20.2332 4.96472 15.0764 10.1507 15.0764 16.5205C15.0764 22.9091 20.2332 28.0951 26.6089 28.0951C32.9846 28.0951 38.1602 22.9091 38.1602 16.5205C38.1602 10.1507 32.9846 4.96472 26.6089 4.96472Z" fill="#BFECFE"/>
<path fill-rule="evenodd" clip-rule="evenodd" d="M39.3041 13.4577C44.8922 17.8357 42.5295 27.8883 34.1661 28.5084C34.0723 28.5084 14.7014 28.5272 13.6326 28.5272C13.6701 28.5084 18.3018 23.2848 27.4341 14.8105C30.5094 11.5223 35.6475 10.3761 39.3041 13.4577Z" fill="#66D2FB"/>
<path fill-rule="evenodd" clip-rule="evenodd" d="M5.04396 3.89344C-4.14454 11.1088 -0.375381 27.5312 13.3886 28.5458C13.5011 28.5646 19.2018 28.5646 23.346 28.5646C25.5775 28.5646 27.3777 26.7608 27.3777 24.5436C27.3401 23.2283 27.3214 21.7251 27.3777 20.2595V16.7833C27.3777 13.9648 27.3026 11.0524 26.0463 8.53456C22.3146 1.11253 12.8636 -1.53685 5.04396 3.89344Z" fill="#00B4F9"/>
<path fill-rule="evenodd" clip-rule="evenodd" d="M0.0593262 14.3994C0.0593262 22.1022 6.18762 28.4097 13.7402 28.4097C21.2928 28.4097 27.4211 22.1022 27.4211 14.3994C27.4211 6.69652 21.2928 0.369873 13.7402 0.369873C6.18762 0.369873 0.0593262 6.69652 0.0593262 14.3994Z" fill="white"/>
<path fill-rule="evenodd" clip-rule="evenodd" d="M27.3778 14.8857V28.5084H13.6326L27.3778 14.8857Z" fill="#86DEFF"/>
<path d="M44.9297 31.2706H53.6307C53.5557 32.5671 53.2932 33.7884 52.8244 34.9346C52.3556 36.062 51.6992 37.0767 50.8741 37.9598C50.049 38.8617 49.0552 39.5569 47.9113 40.0643C46.7862 40.5528 45.5111 40.8159 44.1047 40.8159C42.1544 40.8159 40.4105 40.3461 38.8728 39.4254C37.3352 38.5047 36.1163 37.2458 35.2537 35.6111C34.3723 33.9951 33.941 32.1537 33.941 30.0868C33.941 27.9823 34.3723 26.1409 35.2724 24.525C36.1538 22.9279 37.3727 21.6689 38.9103 20.7482C40.448 19.8275 42.1919 19.3766 44.1047 19.3766C46.0549 19.3766 47.7613 19.8087 49.224 20.6731C50.6679 21.5374 51.793 22.6272 52.5806 23.9425L53.3682 23.2849C52.7118 22.2702 51.9243 21.4059 51.0429 20.6731C50.1428 19.9403 49.1114 19.3578 47.9676 18.9256C46.8237 18.4934 45.5298 18.2867 44.1047 18.2867C42.5107 18.2867 41.0293 18.5686 39.6417 19.1511C38.2728 19.7336 37.0726 20.5603 36.06 21.6313C35.0287 22.6836 34.2411 23.9425 33.6785 25.3705C33.0972 26.8174 32.8159 28.3769 32.8159 30.0868C32.8159 31.7967 33.0972 33.3751 33.6785 34.8031C34.2411 36.2499 35.0287 37.49 36.06 38.5611C37.0726 39.6321 38.2728 40.4401 39.6417 41.0226C41.0293 41.605 42.5107 41.9057 44.1047 41.9057C45.7736 41.9057 47.255 41.5863 48.5676 40.9662C49.8803 40.3273 51.0054 39.4818 51.9243 38.392C52.8431 37.3021 53.5557 36.0808 54.0432 34.6716C54.5308 33.2811 54.7746 31.8155 54.7746 30.2935H44.9297V31.2706ZM64.0381 41.9245C65.482 41.9245 66.7384 41.6238 67.826 41.0038C68.8949 40.4025 69.87 39.4254 70.7701 38.0913L69.945 37.5652C69.1574 38.749 68.3135 39.6133 67.3947 40.1582C66.4758 40.7031 65.3882 40.985 64.1506 40.985C62.988 40.985 61.9566 40.6843 61.0753 40.0643C60.1939 39.463 59.4813 38.6362 58.975 37.5652C58.45 36.513 58.2062 35.2916 58.2062 33.9388C58.2062 32.6047 58.4687 31.4209 58.9938 30.3687C59.5188 29.3352 60.2314 28.5273 61.1315 27.9448C62.0504 27.3623 63.0817 27.0616 64.2444 27.0616C65.3132 27.0616 66.2883 27.3247 67.1509 27.8508C68.0135 28.3769 68.6886 29.1097 69.1949 30.0304C69.7012 30.9512 69.945 31.9846 69.945 33.112C69.945 33.2999 69.9262 33.469 69.9075 33.6193C69.87 33.7884 69.8325 33.92 69.795 34.0327L70.245 33.3751H57.8311V34.277H70.9763C70.9951 34.1454 71.0138 33.9951 71.0138 33.8448C71.0326 33.6945 71.0326 33.563 71.0326 33.4502C71.0326 32.0598 70.7326 30.8196 70.1512 29.711C69.5512 28.6024 68.7448 27.7381 67.7322 27.0992C66.7196 26.4604 65.557 26.1409 64.2444 26.1409C62.8755 26.1409 61.6753 26.4791 60.6065 27.1556C59.5563 27.8132 58.7125 28.7527 58.1124 29.9365C57.4936 31.1203 57.1936 32.4731 57.1936 34.0139C57.1936 35.5171 57.4749 36.87 58.0749 38.0725C58.6562 39.2563 59.4813 40.1958 60.5127 40.891C61.5628 41.5863 62.7254 41.9245 64.0381 41.9245ZM73.1141 34.0327C73.1141 35.5547 73.4516 36.9076 74.1267 38.0913C74.8018 39.2939 75.7206 40.2334 76.8832 40.9098C78.0459 41.5863 79.3397 41.9245 80.7837 41.9245C82.2651 41.9245 83.5777 41.5863 84.7216 40.9098C85.8842 40.2334 86.8031 39.2939 87.4969 38.0913C88.172 36.9076 88.5095 35.5547 88.5095 34.0327C88.5095 32.5107 88.172 31.1391 87.4969 29.9553C86.8031 28.7715 85.8842 27.8508 84.7216 27.1744C83.5777 26.4791 82.2651 26.1409 80.7837 26.1409C79.3397 26.1409 78.0459 26.4791 76.8832 27.1744C75.7206 27.8508 74.8018 28.7715 74.1267 29.9553C73.4516 31.1391 73.1141 32.5107 73.1141 34.0327ZM74.1267 34.0327C74.1267 32.6986 74.4267 31.5148 75.008 30.4626C75.6081 29.4104 76.4144 28.5836 77.427 27.9823C78.4397 27.3999 79.5835 27.0992 80.8212 27.0992C82.0775 27.0992 83.2027 27.3999 84.2153 27.9823C85.2091 28.5836 86.0155 29.4104 86.5968 30.4626C87.1969 31.5148 87.4969 32.6986 87.4969 34.0327C87.4969 35.3668 87.1969 36.5693 86.5968 37.6216C86.0155 38.6738 85.2091 39.5006 84.2153 40.0831C83.2027 40.6843 82.0775 40.985 80.8212 40.985C79.5835 40.985 78.4397 40.6843 77.427 40.0831C76.4144 39.5006 75.6081 38.6738 75.008 37.6404C74.4267 36.6069 74.1267 35.4044 74.1267 34.0327ZM93.4788 30.0868C93.4788 28.3018 93.8726 26.7234 94.6789 25.3705C95.4665 24.0177 96.5166 22.9654 97.8105 22.195C99.1044 21.4247 100.492 21.0489 102.011 21.0489C103.099 21.0489 104.092 21.1992 105.011 21.481C105.911 21.7629 106.736 22.1575 107.487 22.6836C108.237 23.1909 108.855 23.7922 109.381 24.4686V20.7858C108.424 19.9215 107.374 19.3014 106.23 18.8692C105.105 18.4558 103.699 18.2492 102.011 18.2492C100.417 18.2492 98.9169 18.5498 97.5292 19.1323C96.1416 19.696 94.9227 20.5227 93.8726 21.5938C92.8225 22.646 91.9974 23.9049 91.3973 25.3518C90.816 26.7986 90.516 28.3769 90.516 30.0868C90.516 31.7967 90.816 33.3751 91.3973 34.8219C91.9974 36.2687 92.8225 37.5276 93.8726 38.5987C94.9227 39.6509 96.1416 40.4776 97.5292 41.0601C98.9169 41.6426 100.417 41.9245 102.011 41.9245C103.699 41.9245 105.105 41.7178 106.23 41.3044C107.374 40.891 108.424 40.2522 109.381 39.4066V35.7238C108.855 36.4002 108.237 37.0015 107.487 37.5088C106.736 38.0162 105.911 38.4295 105.011 38.7114C104.092 38.9932 103.099 39.1436 102.011 39.1436C100.492 39.1436 99.1044 38.749 97.8105 37.9786C96.5166 37.2082 95.4665 36.156 94.6789 34.8031C93.8726 33.4314 93.4788 31.8719 93.4788 30.0868ZM113.468 15.9568V41.605H116.094V15.9568H113.468ZM119.019 34.0327C119.019 35.5547 119.375 36.9076 120.069 38.0913C120.744 39.2939 121.682 40.2334 122.863 40.9098C124.045 41.5863 125.376 41.9245 126.839 41.9245C128.32 41.9245 129.651 41.5863 130.833 40.9098C131.995 40.2334 132.933 39.2939 133.608 38.0913C134.302 36.9076 134.658 35.5547 134.658 34.0327C134.658 32.5107 134.302 31.1391 133.608 29.9553C132.933 28.7715 131.995 27.8508 130.833 27.1744C129.651 26.4791 128.32 26.1409 126.839 26.1409C125.376 26.1409 124.045 26.4791 122.863 27.1744C121.682 27.8508 120.744 28.7715 120.069 29.9553C119.375 31.1391 119.019 32.5107 119.019 34.0327ZM121.682 34.0327C121.682 32.9805 121.907 32.041 122.357 31.233C122.807 30.4062 123.426 29.7674 124.195 29.2976C124.982 28.8467 125.864 28.6212 126.839 28.6212C127.833 28.6212 128.695 28.8467 129.483 29.2976C130.252 29.7674 130.87 30.4062 131.32 31.233C131.77 32.041 131.995 32.9805 131.995 34.0327C131.995 35.0849 131.77 36.0244 131.32 36.8324C130.87 37.6404 130.252 38.2792 129.483 38.749C128.695 39.2375 127.833 39.463 126.839 39.463C125.864 39.463 124.982 39.2375 124.195 38.749C123.426 38.2792 122.807 37.6404 122.357 36.8324C121.907 36.0244 121.682 35.0849 121.682 34.0327ZM139.553 35.6862V26.4791H136.927V36.0056C136.927 37.8095 137.396 39.2375 138.334 40.3273C139.271 41.3984 140.528 41.9245 142.103 41.9245C143.115 41.9245 143.997 41.699 144.728 41.248C145.478 40.8159 146.097 40.1394 146.603 39.2375V41.605H149.229V26.4791H146.603V35.6862C146.603 36.419 146.453 37.0767 146.135 37.6592C145.816 38.2229 145.366 38.6738 144.784 38.9932C144.203 39.3127 143.528 39.463 142.759 39.463C141.709 39.463 140.921 39.1436 140.378 38.4859C139.834 37.8283 139.553 36.8888 139.553 35.6862ZM164.793 15.9568V41.605H167.418V15.9568H164.793ZM152.173 34.0327C152.173 35.6674 152.51 37.0579 153.185 38.2416C153.86 39.4254 154.76 40.3461 155.904 40.985C157.048 41.605 158.286 41.9245 159.655 41.9245C160.911 41.9245 162.018 41.605 162.955 40.985C163.911 40.3461 164.643 39.4254 165.187 38.2416C165.712 37.0579 165.974 35.6674 165.974 34.0327C165.974 32.398 165.712 30.9887 165.187 29.805C164.643 28.64 163.911 27.7381 162.955 27.0992C162.018 26.4604 160.911 26.1409 159.655 26.1409C158.286 26.1409 157.048 26.4604 155.904 27.0992C154.76 27.7381 153.86 28.64 153.185 29.805C152.51 30.9887 152.173 32.398 152.173 34.0327ZM154.817 34.0327C154.817 32.8677 155.061 31.8906 155.529 31.0827C155.998 30.2747 156.636 29.6546 157.423 29.2413C158.211 28.8279 159.055 28.6212 159.974 28.6212C160.742 28.6212 161.492 28.8279 162.243 29.2413C162.993 29.6546 163.593 30.2747 164.08 31.0827C164.568 31.8906 164.793 32.8677 164.793 34.0327C164.793 35.1977 164.568 36.1935 164.08 37.0015C163.593 37.8095 162.993 38.4295 162.243 38.8429C161.492 39.2563 160.742 39.463 159.974 39.463C159.055 39.463 158.211 39.2563 157.423 38.8429C156.636 38.4295 155.998 37.8095 155.529 37.0015C155.061 36.1935 154.817 35.1977 154.817 34.0327Z" fill="white"/>
<path d="M173.403 40.5248C173.403 41.0143 173.581 41.4482 173.937 41.8264C174.315 42.1824 174.749 42.3604 175.238 42.3604C175.75 42.3604 176.184 42.1824 176.54 41.8264C176.896 41.4482 177.074 41.0143 177.074 40.5248C177.074 40.0131 176.896 39.5792 176.54 39.2232C176.184 38.8672 175.75 38.6892 175.238 38.6892C174.749 38.6892 174.315 38.8672 173.937 39.2232C173.581 39.5792 173.403 40.0131 173.403 40.5248Z" fill="white"/>
<path d="M185.144 34.8511H197.493L196.492 32.1811H186.146L185.144 34.8511ZM191.252 23.7706L195.257 33.1823L195.524 33.8498L198.928 41.8598H202.099L191.252 17.3292L180.405 41.8598H183.576L187.047 33.6496L187.314 33.0488L191.252 23.7706Z" fill="white"/>
<path d="M204.941 18.4973V41.8598H207.778V18.4973H204.941Z" fill="white"/>
</svg>
